<?xml version="1.0" encoding="UTF-8"?>
<svg  width="400pt" height="400pt" version="1.1" viewBox="150 50 400 412" xmlns="http://www.w3.org/2000/svg"
>
<path d="m539.58 382.51c1.707 2.9062 1.0977 6.6211-1.4453 8.8242-52.18 45.344-118.99 70.32-188.11 70.32-69.16 0-135.98-24.969-188.16-70.32-2.543-2.2109-3.1484-5.918-1.4453-8.8242 11.16-19 26.723-21.836 27.383-21.945 0.39844-0.09375 70.27-15.262 96.383-28.262 18.68-9.2891 18.969-28.426 16.969-40.441-8.6914-8.2695-12.965-24.695-14.676-33.258-0.60547-0.32422-1.1992-0.69922-1.7578-1.1328-4.0273-3.0898-6.5117-8.6133-7.3867-16.398-0.42578-4.0195-2.4453-8.5664-4.4062-12.965-2.6836-6.0312-5.2188-11.723-3.9688-17.16 0.99609-4.5078 3.4336-6.9766 5.4414-8.2812l-0.16406-0.92969c-5.168-28.766-10.051-55.938 11.82-80.008 7.2109-7.9922 17.949-14.242 31.891-18.555 20.727-6.4297 43.438-6.4336 64.176 0 13.938 4.3125 24.672 10.562 31.902 18.57 21.863 24.051 16.973 51.234 11.801 80.012l-0.15625 0.90234c2.0039 1.3047 4.4531 3.7812 5.4531 8.3438 1.2383 5.3828-1.3008 11.105-3.9883 17.16-1.9492 4.3867-3.9609 8.9141-4.4023 12.898-0.875 7.7969-3.3672 13.312-7.3867 16.402-0.56641 0.42969-1.1523 0.8125-1.7656 1.1328-1.7148 8.5625-5.9883 24.988-14.676 33.258-1.9922 12.02-1.7148 31.152 16.961 40.441 26.137 13.008 95.938 28.168 96.641 28.324 0.35156 0.054687 15.91 2.8828 27.078 21.891z"/>

</svg>
